<?xml version="1.0" standalone="no"?>
<!DOCTYPE svg PUBLIC "-//W3C//DTD SVG 20010904//EN"
 "http://www.w3.org/TR/2001/REC-SVG-20010904/DTD/svg10.dtd">
<svg version="1.0" xmlns="http://www.w3.org/2000/svg"
 width="16.000000pt" height="16.000000pt" viewBox="0 0 16.000000 16.000000"
 preserveAspectRatio="xMidYMid meet">
<metadata>
Created by potrace 1.11, written by Peter Selinger 2001-2013
</metadata>
<g transform="translate(0.000000,16.000000) scale(0.000998,-0.000998)"
fill="#000000" stroke="none">
<path d="M973 10826 l2 -791 1758 0 c966 0 1757 -2 1757 -5 0 -3 -162 -225
-360 -495 -198 -269 -403 -550 -457 -623 -54 -74 -138 -189 -188 -256 -91
-124 -824 -1123 -990 -1350 -49 -68 -98 -134 -108 -147 -9 -13 -63 -87 -120
-164 -95 -131 -136 -186 -155 -210 -4 -5 -23 -32 -42 -60 -46 -65 -46 -65 -73
-100 -13 -16 -234 -318 -492 -670 -258 -352 -520 -710 -582 -795 -63 -85 -121
-164 -129 -175 -8 -11 -78 -105 -155 -210 -77 -104 -148 -201 -157 -215 -9
-14 -31 -45 -49 -69 -18 -24 -33 -47 -33 -50 0 -3 1432 -6 3183 -6 l3182 0 1
791 2 791 -1614 -1 c-888 -1 -1614 0 -1614 2 0 2 65 91 93 127 4 5 25 35 47
65 21 30 51 71 65 90 35 46 402 550 485 665 36 50 70 97 77 105 12 14 201 274
550 755 92 127 170 232 173 235 3 3 28 37 55 75 27 39 53 75 57 80 18 22 64
84 78 105 8 12 147 202 308 423 507 695 553 758 691 947 74 102 200 275 281
385 173 237 340 466 393 538 87 121 119 165 257 354 79 109 148 203 153 208
20 24 317 435 317 438 0 2 -1496 4 -3325 4 l-3324 0 2 -791z"/>
<path d="M9190 11509 c-79 -7 -155 -17 -205 -26 -16 -3 -39 -6 -50 -8 -95 -13
-325 -87 -446 -143 -221 -102 -446 -279 -599 -471 -44 -55 -143 -202 -164
-244 -9 -18 -21 -39 -26 -47 -18 -27 -78 -164 -113 -255 -85 -224 -133 -443
-152 -697 l-7 -86 3093 2 c1702 1 3105 5 3119 9 14 3 48 8 75 12 221 27 433
89 611 177 186 92 305 177 439 313 119 120 131 134 207 245 107 156 198 340
258 520 23 72 70 241 76 280 3 14 11 61 19 105 19 100 24 141 30 242 l5 80
-3048 -1 c-1676 0 -3081 -4 -3122 -7z"/>
<path d="M9287 8984 c-1 -1 -42 -5 -92 -8 -115 -9 -160 -16 -350 -52 -11 -2
-56 -14 -100 -28 -604 -180 -1019 -618 -1214 -1282 -40 -132 -51 -186 -72
-319 -6 -38 -12 -80 -14 -93 -2 -12 -7 -63 -11 -113 l-6 -90 1603 4 c882 2
1622 6 1644 10 22 3 60 8 85 11 25 3 56 8 70 11 14 2 41 7 60 10 19 3 60 13
90 21 30 9 65 18 77 20 76 14 302 109 418 176 176 102 334 246 508 468 59 74
181 304 235 440 93 235 161 554 166 780 l1 35 -1548 0 c-852 0 -1549 -1 -1550
-1z"/>
<path d="M9605 6453 c-11 -1 -123 -4 -250 -7 -126 -2 -241 -6 -255 -9 -14 -3
-47 -8 -75 -12 -150 -19 -386 -87 -522 -151 -40 -19 -74 -34 -77 -34 -11 0
-177 -108 -244 -158 -76 -56 -231 -207 -289 -280 -97 -120 -219 -331 -277
-477 -15 -38 -32 -79 -36 -90 -41 -95 -114 -390 -126 -505 -3 -36 -8 -67 -10
-70 -1 -4 -6 -48 -10 -99 l-6 -92 628 4 c346 2 640 6 654 10 14 3 48 8 75 11
28 3 61 8 75 11 14 3 41 8 60 11 120 21 343 95 455 151 275 137 501 339 668
595 207 318 337 731 361 1146 2 37 0 42 -18 43 -75 2 -765 4 -781 2z"/>
</g>
</svg>
